<?xml version="1.0" encoding="UTF-8"?>
<svg xmlns="http://www.w3.org/2000/svg" xmlns:xlink="http://www.w3.org/1999/xlink" viewBox="0 0 24 24" width="24px" height="24px">
<g id="surface127678437">
<path style="fill-rule:nonzero;fill:;fill-opacity:1;stroke-width:10;stroke-linecap:butt;stroke-linejoin:round;stroke-opacity:1;stroke-miterlimit:10;" d="M 114.676147 21.508295 C 134.435434 21.508295 150.491706 37.564567 150.491706 57.323854 L 150.491706 114.676147 C 150.491706 134.435434 134.435434 150.491706 114.676147 150.491706 L 57.323854 150.491706 C 37.564567 150.491706 21.508295 134.435434 21.508295 114.676147 L 21.508295 57.323854 C 21.508295 37.564567 37.564567 21.508295 57.323854 21.508295 Z M 35.846368 57.323854 L 35.846368 114.676147 C 35.846368 126.525795 45.474207 136.153633 57.323854 136.153633 L 114.676147 136.153633 C 126.525795 136.153633 136.153633 126.525795 136.153633 114.676147 L 136.153633 57.323854 C 136.153633 45.474207 126.525795 35.846368 114.676147 35.846368 L 57.323854 35.846368 C 45.474207 35.846368 35.846368 45.474207 35.846368 57.323854 Z M 129.014221 50.154817 C 129.014221 54.124449 125.785192 57.323854 121.845184 57.323854 C 117.875552 57.323854 114.676147 54.124449 114.676147 50.154817 C 114.676147 46.21481 117.875552 42.985781 121.845184 42.985781 C 125.785192 42.985781 129.014221 46.21481 129.014221 50.154817 Z M 121.845184 86.000001 C 121.845184 105.759288 105.759288 121.845184 86.000001 121.845184 C 66.240714 121.845184 50.154817 105.759288 50.154817 86.000001 C 50.154817 66.240714 66.240714 50.154817 86.000001 50.154817 C 105.759288 50.154817 121.845184 66.240714 121.845184 86.000001 Z M 64.492891 86.000001 C 64.492891 97.849648 74.150353 107.507111 86.000001 107.507111 C 97.849648 107.507111 107.507111 97.849648 107.507111 86.000001 C 107.507111 74.150353 97.849648 64.492891 86.000001 64.492891 C 74.150353 64.492891 64.492891 74.150353 64.492891 86.000001 Z M 64.492891 86.000001 " transform="matrix(0.13186,0,0,0.13186,0.66,0.66)"/>
<path style=" stroke:none;fill-rule:nonzero;fill:#ffffff;fill-opacity:1;" d="M 8.21875 3.496094 C 5.613281 3.496094 3.496094 5.613281 3.496094 8.21875 L 3.496094 15.78125 C 3.496094 18.386719 5.613281 20.503906 8.21875 20.503906 L 15.78125 20.503906 C 18.386719 20.503906 20.503906 18.386719 20.503906 15.78125 L 20.503906 8.21875 C 20.503906 5.613281 18.386719 3.496094 15.78125 3.496094 Z M 8.21875 5.386719 L 15.78125 5.386719 C 17.34375 5.386719 18.613281 6.65625 18.613281 8.21875 L 18.613281 15.78125 C 18.613281 17.34375 17.34375 18.613281 15.78125 18.613281 L 8.21875 18.613281 C 6.65625 18.613281 5.386719 17.34375 5.386719 15.78125 L 5.386719 8.21875 C 5.386719 6.65625 6.65625 5.386719 8.21875 5.386719 Z M 16.726562 6.328125 C 16.203125 6.328125 15.78125 6.753906 15.78125 7.273438 C 15.78125 7.796875 16.203125 8.21875 16.726562 8.21875 C 17.246094 8.21875 17.671875 7.796875 17.671875 7.273438 C 17.671875 6.753906 17.246094 6.328125 16.726562 6.328125 Z M 12 7.273438 C 9.394531 7.273438 7.273438 9.394531 7.273438 12 C 7.273438 14.605469 9.394531 16.726562 12 16.726562 C 14.605469 16.726562 16.726562 14.605469 16.726562 12 C 16.726562 9.394531 14.605469 7.273438 12 7.273438 Z M 12 9.164062 C 13.5625 9.164062 14.835938 10.4375 14.835938 12 C 14.835938 13.5625 13.5625 14.835938 12 14.835938 C 10.4375 14.835938 9.164062 13.5625 9.164062 12 C 9.164062 10.4375 10.4375 9.164062 12 9.164062 Z M 12 9.164062 "/>
</g>
</svg>
