<svg xmlns="http://www.w3.org/2000/svg" width="24" height="24" xmlns:v="https://vecta.io/nano"><path d="M15.781 3.496a4.73 4.73 0 0 1 4.723 4.723v7.562a4.73 4.73 0 0 1-4.723 4.723H8.219a4.73 4.73 0 0 1-4.723-4.723V8.219a4.73 4.73 0 0 1 4.723-4.723zM5.387 8.219v7.562c0 1.562 1.27 2.832 2.832 2.832h7.562c1.562 0 2.832-1.27 2.832-2.832V8.219c0-1.562-1.27-2.832-2.832-2.832H8.219c-1.562 0-2.832 1.27-2.832 2.832zm12.285-.945c0 .523-.426.945-.945.945s-.945-.422-.945-.945.422-.945.945-.945a.95.95 0 0 1 .945.945zM16.727 12c0 2.605-2.121 4.727-4.727 4.727S7.273 14.605 7.273 12 9.395 7.273 12 7.273 16.727 9.395 16.727 12zm-7.562 0A2.84 2.84 0 0 0 12 14.836 2.84 2.84 0 0 0 14.836 12 2.84 2.84 0 0 0 12 9.164 2.84 2.84 0 0 0 9.164 12zm0 0"/><path d="M8.219 3.496a4.73 4.73 0 0 0-4.723 4.723v7.563a4.73 4.73 0 0 0 4.723 4.723h7.563a4.73 4.73 0 0 0 4.723-4.723V8.219a4.73 4.73 0 0 0-4.723-4.723zm0 1.891h7.563c1.563 0 2.832 1.27 2.832 2.832v7.563c0 1.563-1.27 2.832-2.832 2.832H8.219c-1.562 0-2.832-1.27-2.832-2.832V8.219c0-1.562 1.27-2.832 2.832-2.832zm8.508.941c-.523 0-.945.426-.945.945s.422.945.945.945.945-.422.945-.945a.95.95 0 0 0-.945-.945zM12 7.273c-2.605 0-4.727 2.121-4.727 4.727S9.395 16.727 12 16.727s4.727-2.121 4.727-4.727S14.605 7.273 12 7.273zm0 1.891A2.84 2.84 0 0 1 14.836 12 2.84 2.84 0 0 1 12 14.836 2.84 2.84 0 0 1 9.164 12 2.84 2.84 0 0 1 12 9.164zm0 0" fill="#fff"/></svg>