<svg xmlns="http://www.w3.org/2000/svg" width="24" height="24" xmlns:v="https://vecta.io/nano"><path d="M10.898 2.102c-4.598.5-8.297 4.199-8.797 8.699-.5 4.699 2.199 8.898 6.297 10.5.301.098.602-.102.602-.5v-1.602s-.398.102-.898.102c-1.402 0-2-1.199-2.102-1.902-.102-.398-.301-.699-.602-1-.297-.098-.398-.098-.398-.199C5 16 5.301 16 5.398 16c.602 0 1.102.699 1.301 1 .5.801 1.102 1 1.402 1 .398 0 .699-.102.898-.199.102-.699.398-1.402 1-1.801-2.301-.5-4-1.801-4-4 0-1.102.5-2.199 1.199-3C7.102 8.801 7 8.301 7 7.602c0-.402 0-1 .301-1.602 0 0 1.398 0 2.801 1.301C10.602 7.102 11.301 7 12 7s1.398.102 2 .301C15.301 6 16.801 6 16.801 6 17 6.602 17 7.199 17 7.602c0 .797-.102 1.199-.199 1.398C17.5 9.801 18 10.801 18 12c0 2.199-1.699 3.5-4 4 .602.5 1 1.398 1 2.301v2.598c0 .301.301.602.699.5 3.699-1.5 6.301-5.098 6.301-9.297 0-6-5.102-10.703-11.102-10zm0 0" fill="#fff"/></svg>